<svg xmlns="http://www.w3.org/2000/svg"><symbol style="enable-background:new 0 0 284.929 284.929" id="sprite-arrow__down" viewBox="0 0 284.929 284.929"><path d="m282.082 76.511-14.274-14.273c-1.902-1.906-4.093-2.856-6.57-2.856-2.471 0-4.661.95-6.563 2.856L142.466 174.441 30.262 62.241c-1.903-1.906-4.093-2.856-6.567-2.856-2.475 0-4.665.95-6.567 2.856L2.856 76.515C.95 78.417 0 80.607 0 83.082c0 2.473.953 4.663 2.856 6.565l133.043 133.046c1.902 1.903 4.093 2.854 6.567 2.854s4.661-.951 6.562-2.854L282.082 89.647c1.902-1.903 2.847-4.093 2.847-6.565 0-2.475-.945-4.665-2.847-6.571z"/></symbol><symbol style="enable-background:new 0 0 492 492" id="sprite-arrow__left" viewBox="0 0 492 492"><path d="M198.608 246.104 382.664 62.04c5.068-5.056 7.856-11.816 7.856-19.024 0-7.212-2.788-13.968-7.856-19.032l-16.128-16.12C361.476 2.792 354.712 0 347.504 0s-13.964 2.792-19.028 7.864L109.328 227.008c-5.084 5.08-7.868 11.868-7.848 19.084-.02 7.248 2.76 14.028 7.848 19.112l218.944 218.932c5.064 5.072 11.82 7.864 19.032 7.864 7.208 0 13.964-2.792 19.032-7.864l16.124-16.12c10.492-10.492 10.492-27.572 0-38.06L198.608 246.104z"/></symbol><symbol style="enable-background:new 0 0 492.004 492.004" id="sprite-arrow__right" viewBox="0 0 492.004 492.004"><path d="M382.678 226.804 163.73 7.86C158.666 2.792 151.906 0 144.698 0s-13.968 2.792-19.032 7.86l-16.124 16.12c-10.492 10.504-10.492 27.576 0 38.064L293.398 245.9l-184.06 184.06c-5.064 5.068-7.86 11.824-7.86 19.028 0 7.212 2.796 13.968 7.86 19.04l16.124 16.116c5.068 5.068 11.824 7.86 19.032 7.86s13.968-2.792 19.032-7.86L382.678 265c5.076-5.084 7.864-11.872 7.848-19.088.016-7.244-2.772-14.028-7.848-19.108z"/></symbol><symbol style="enable-background:new 0 0 612 612" id="sprite-double-arrow__left" viewBox="0 0 612 612"><path d="M124.172 305.975 342.365 87.781c20.079-20.079 20.079-52.644 0-72.722-20.079-20.079-52.644-20.079-72.723 0l-254.58 254.58c-20.079 20.079-20.079 52.644 0 72.723l254.58 254.58c20.079 20.078 52.644 20.078 72.723 0 20.079-20.079 20.079-52.644 0-72.723L124.172 305.975zm307.223-.281 165.371-165.982c20.308-20.359 20.308-53.408 0-73.768-20.309-20.359-53.204-20.359-73.513 0L321.139 268.823c-20.309 20.359-17.047 35.266 3.032 55.345L523.253 545.47c20.309 20.359 53.204 20.359 73.513 0 20.308-20.359 20.308-53.408 0-73.768L431.395 305.694z"/></symbol><symbol style="enable-background:new 0 0 612.02 612.02" id="sprite-double-arrow__right" viewBox="0 0 612.02 612.02"><path d="M596.96 269.674 342.381 15.094c-20.079-20.079-52.644-20.079-72.723 0s-20.079 52.644 0 72.723L487.852 306.01 269.658 524.202c-20.079 20.079-20.079 52.644 0 72.723s52.644 20.079 72.723 0L596.96 342.346c20.079-20.029 20.079-52.593 0-72.672zm-306.102-15.416L88.744 41.238c-20.309-21.378-53.204-21.378-73.513 0s-20.309 56.058 0 77.462l165.371 174.289L15.231 467.278c-20.309 21.379-20.309 56.083 0 77.462s53.204 21.379 73.513 0l202.114-213.02c20.309-21.378 20.309-56.058 0-77.462z"/></symbol></svg>